<mxfile host="app.diagrams.net" modified="2021-09-24T11:04:36.964Z" agent="5.0 (Macintosh; Intel Mac OS X 10_15_7) AppleWebKit/537.36 (KHTML, like Gecko) Chrome/93.0.4577.82 Safari/537.36" etag="b9zrus6-fpFRYHWZ9eQQ" version="15.2.9" type="github">
  <diagram id="kgpKYQtTHZ0yAKxKKP6v" name="Page-1">
    <mxGraphModel dx="1546" dy="699" grid="1" gridSize="10" guides="1" tooltips="1" connect="1" arrows="1" fold="1" page="1" pageScale="1" pageWidth="850" pageHeight="1100" math="0" shadow="0">
      <root>
        <mxCell id="0" />
        <mxCell id="1" parent="0" />
        <mxCell id="3nuBFxr9cyL0pnOWT2aG-1" value=":Geolocation &#xa;Object" style="shape=umlLifeline;perimeter=lifelinePerimeter;container=1;collapsible=0;recursiveResize=0;rounded=0;shadow=0;strokeWidth=1;fillColor=#dae8fc;strokeColor=#6c8ebf;" parent="1" vertex="1">
          <mxGeometry x="120" y="80" width="100" height="300" as="geometry" />
        </mxCell>
        <mxCell id="3nuBFxr9cyL0pnOWT2aG-2" value="" style="points=[];perimeter=orthogonalPerimeter;rounded=0;shadow=0;strokeWidth=1;" parent="3nuBFxr9cyL0pnOWT2aG-1" vertex="1">
          <mxGeometry x="45" y="70" width="10" height="190" as="geometry" />
        </mxCell>
        <mxCell id="3nuBFxr9cyL0pnOWT2aG-3" value="START UPDATES" style="verticalAlign=bottom;startArrow=oval;endArrow=block;startSize=8;shadow=0;strokeWidth=1;" parent="3nuBFxr9cyL0pnOWT2aG-1" target="3nuBFxr9cyL0pnOWT2aG-2" edge="1">
          <mxGeometry x="0.0435" y="-20" relative="1" as="geometry">
            <mxPoint x="-70" y="70" as="sourcePoint" />
            <mxPoint as="offset" />
          </mxGeometry>
        </mxCell>
        <mxCell id="3nuBFxr9cyL0pnOWT2aG-4" value="" style="points=[];perimeter=orthogonalPerimeter;rounded=0;shadow=0;strokeWidth=1;" parent="3nuBFxr9cyL0pnOWT2aG-1" vertex="1">
          <mxGeometry x="50" y="120" width="10" height="80" as="geometry" />
        </mxCell>
        <mxCell id="xkqmg13KVCovsOAH0Mo--8" value="" style="endArrow=classic;html=1;entryX=-0.375;entryY=0.214;entryDx=0;entryDy=0;entryPerimeter=0;" edge="1" parent="3nuBFxr9cyL0pnOWT2aG-1" target="3nuBFxr9cyL0pnOWT2aG-6">
          <mxGeometry width="50" height="50" relative="1" as="geometry">
            <mxPoint x="55" y="110" as="sourcePoint" />
            <mxPoint x="105" y="60" as="targetPoint" />
          </mxGeometry>
        </mxCell>
        <mxCell id="3nuBFxr9cyL0pnOWT2aG-5" value=":Storage" style="shape=umlLifeline;perimeter=lifelinePerimeter;container=1;collapsible=0;recursiveResize=0;rounded=0;shadow=0;strokeWidth=1;fillColor=#dae8fc;strokeColor=#6c8ebf;" parent="1" vertex="1">
          <mxGeometry x="300" y="80" width="100" height="300" as="geometry" />
        </mxCell>
        <mxCell id="3nuBFxr9cyL0pnOWT2aG-6" value="" style="points=[];perimeter=orthogonalPerimeter;rounded=0;shadow=0;strokeWidth=1;" parent="3nuBFxr9cyL0pnOWT2aG-5" vertex="1">
          <mxGeometry x="45" y="80" width="10" height="140" as="geometry" />
        </mxCell>
        <mxCell id="xkqmg13KVCovsOAH0Mo--1" value=":Table View" style="shape=umlLifeline;perimeter=lifelinePerimeter;container=1;collapsible=0;recursiveResize=0;rounded=0;shadow=0;strokeWidth=1;fillColor=#dae8fc;strokeColor=#6c8ebf;" vertex="1" parent="1">
          <mxGeometry x="480" y="80" width="100" height="300" as="geometry" />
        </mxCell>
        <mxCell id="xkqmg13KVCovsOAH0Mo--2" value="" style="points=[];perimeter=orthogonalPerimeter;rounded=0;shadow=0;strokeWidth=1;" vertex="1" parent="xkqmg13KVCovsOAH0Mo--1">
          <mxGeometry x="45" y="130" width="10" height="160" as="geometry" />
        </mxCell>
        <mxCell id="xkqmg13KVCovsOAH0Mo--3" value="Actor" style="shape=umlActor;verticalLabelPosition=bottom;verticalAlign=top;html=1;outlineConnect=0;" vertex="1" parent="1">
          <mxGeometry x="10" y="50" width="30" height="60" as="geometry" />
        </mxCell>
        <mxCell id="xkqmg13KVCovsOAH0Mo--5" value="" style="points=[];perimeter=orthogonalPerimeter;rounded=0;shadow=0;strokeWidth=1;" vertex="1" parent="1">
          <mxGeometry x="20" y="140" width="10" height="250" as="geometry" />
        </mxCell>
        <mxCell id="xkqmg13KVCovsOAH0Mo--9" value="JSON and Store Update" style="text;html=1;strokeColor=none;fillColor=none;align=center;verticalAlign=middle;whiteSpace=wrap;rounded=0;" vertex="1" parent="1">
          <mxGeometry x="190" y="170" width="150" height="20" as="geometry" />
        </mxCell>
        <mxCell id="xkqmg13KVCovsOAH0Mo--10" value="" style="endArrow=classic;html=1;" edge="1" parent="1" source="3nuBFxr9cyL0pnOWT2aG-5" target="xkqmg13KVCovsOAH0Mo--1">
          <mxGeometry width="50" height="50" relative="1" as="geometry">
            <mxPoint x="390" y="260" as="sourcePoint" />
            <mxPoint x="440" y="210" as="targetPoint" />
            <Array as="points">
              <mxPoint x="410" y="220" />
            </Array>
          </mxGeometry>
        </mxCell>
        <mxCell id="xkqmg13KVCovsOAH0Mo--11" value="Retrieve, Decode &amp;amp; Store&lt;br&gt;in Locations Array" style="text;html=1;strokeColor=none;fillColor=none;align=center;verticalAlign=middle;whiteSpace=wrap;rounded=0;" vertex="1" parent="1">
          <mxGeometry x="360" y="190" width="150" height="20" as="geometry" />
        </mxCell>
        <mxCell id="xkqmg13KVCovsOAH0Mo--12" value="" style="endArrow=classic;html=1;dashed=1;" edge="1" parent="1">
          <mxGeometry width="50" height="50" relative="1" as="geometry">
            <mxPoint x="520" y="360" as="sourcePoint" />
            <mxPoint x="30" y="360" as="targetPoint" />
          </mxGeometry>
        </mxCell>
        <mxCell id="xkqmg13KVCovsOAH0Mo--13" value="Display To User" style="text;html=1;strokeColor=none;fillColor=none;align=center;verticalAlign=middle;whiteSpace=wrap;rounded=0;" vertex="1" parent="1">
          <mxGeometry x="190" y="330" width="150" height="20" as="geometry" />
        </mxCell>
      </root>
    </mxGraphModel>
  </diagram>
</mxfile>
